<svg width="158" height="30" viewBox="0 0 158 30" fill="none" xmlns="http://www.w3.org/2000/svg"><path d="M0.659912 4.37012H14.3144V25.0904H10.707V7.17257H4.26733V25.0904H0.659912V4.37012Z" fill="#EAEAEA"/><path d="M19.1924 29.7114C18.4967 29.7114 17.9999 29.622 17.7017 29.4431C17.4036 29.2841 17.2545 29.2046 17.2545 29.2046V26.3127C17.4533 26.5115 17.6918 26.6606 17.97 26.7599C18.2483 26.8593 18.5464 26.909 18.8644 26.909C19.3613 26.909 19.7588 26.7997 20.057 26.581C20.3551 26.3823 20.6036 26.104 20.8023 25.7463L15.6446 10.0943H19.3713L22.6806 21.3637L25.9898 10.0943H29.4184L24.7377 24.2854C24.2408 25.8158 23.6048 27.0978 22.8296 28.1313C22.0545 29.1847 20.8421 29.7114 19.1924 29.7114Z" fill="#EAEAEA"/><path d="M42.0567 12.8967H37.8828V25.0904H34.335V12.8967H30.1611V10.0943H42.0567V12.8967Z" fill="#EAEAEA"/><path d="M54.5871 24.0767C54.0703 24.4345 53.3946 24.7426 52.5598 25.0009C51.725 25.2593 50.7412 25.3885 49.6083 25.3885C47.3623 25.3885 45.6133 24.7525 44.3611 23.4805C43.1288 22.1886 42.5127 20.2407 42.5127 17.6371C42.5127 16.5041 42.6419 15.4607 42.9003 14.5066C43.1587 13.5327 43.5462 12.7079 44.063 12.0321C44.5996 11.3365 45.2655 10.7899 46.0605 10.3924C46.8754 9.9949 47.8195 9.79614 48.8928 9.79614C50.6617 9.79614 52.0728 10.3427 53.1263 11.4359C54.1995 12.529 54.7362 14.3775 54.7362 16.9812V18.8594H46.1797C46.2593 20.1116 46.5773 21.0457 47.1338 21.6618C47.6903 22.278 48.6145 22.5861 49.9064 22.5861C50.7611 22.5861 51.6157 22.4469 52.4704 22.1687C53.325 21.8904 54.0306 21.5625 54.5871 21.1848V24.0767ZM48.8331 12.5986C47.9785 12.5986 47.3325 12.9067 46.8953 13.5228C46.458 14.139 46.2195 15.0433 46.1797 16.2358H51.1288V15.9377C51.1288 15.0035 50.9598 14.2185 50.6219 13.5824C50.3039 12.9265 49.7077 12.5986 48.8331 12.5986Z" fill="#EAEAEA"/><path d="M57.1131 25.0904V10.0943H60.6609V22.2879H64.5366V10.0943H68.0844V22.2879H71.9601V10.0943H75.5079V25.0904H57.1131Z" fill="#EAEAEA"/><path d="M89.9613 24.0767C89.4446 24.4345 88.7688 24.7426 87.934 25.0009C87.0993 25.2593 86.1154 25.3885 84.9825 25.3885C82.7366 25.3885 80.9875 24.7525 79.7354 23.4805C78.5031 22.1886 77.8869 20.2407 77.8869 17.6371C77.8869 16.5041 78.0161 15.4607 78.2745 14.5066C78.5329 13.5327 78.9205 12.7079 79.4372 12.0321C79.9739 11.3365 80.6397 10.7899 81.4347 10.3924C82.2496 9.9949 83.1937 9.79614 84.267 9.79614C86.0359 9.79614 87.4471 10.3427 88.5005 11.4359C89.5737 12.529 90.1104 14.3775 90.1104 16.9812V18.8594H81.554C81.6335 20.1116 81.9515 21.0457 82.508 21.6618C83.0645 22.278 83.9887 22.5861 85.2806 22.5861C86.1353 22.5861 86.9899 22.4469 87.8446 22.1687C88.6992 21.8904 89.4048 21.5625 89.9613 21.1848V24.0767ZM84.2074 12.5986C83.3527 12.5986 82.7067 12.9067 82.2695 13.5228C81.8322 14.139 81.5937 15.0433 81.554 16.2358H86.503V15.9377C86.503 15.0035 86.334 14.2185 85.9962 13.5824C85.6781 12.9265 85.0819 12.5986 84.2074 12.5986Z" fill="#EAEAEA"/><path d="M99.0434 25.3885C96.6783 25.3885 94.9093 24.7127 93.7367 23.3612C92.5839 22.0097 92.0075 20.0917 92.0075 17.6072C92.0075 16.4743 92.1566 15.4309 92.4547 14.4768C92.7528 13.5029 93.1802 12.6781 93.7367 12.0023C94.3131 11.3067 95.0286 10.77 95.8832 10.3924C96.7578 9.9949 97.7615 9.79614 98.8944 9.79614C99.7689 9.79614 100.524 9.86571 101.16 10.0048C101.816 10.144 102.333 10.3129 102.71 10.5117V13.5228C102.353 13.3042 101.856 13.0955 101.22 12.8967C100.604 12.698 99.9577 12.5986 99.2819 12.5986C98.1292 12.5986 97.2348 13.016 96.5987 13.8508C95.9826 14.6855 95.6745 15.9079 95.6745 17.5178C95.6745 19.0681 95.9528 20.3004 96.5093 21.2146C97.0857 22.1289 98 22.5861 99.2521 22.5861C99.9875 22.5861 100.633 22.4966 101.19 22.3177C101.766 22.1389 102.273 21.8904 102.71 21.5724V24.4643C102.273 24.7823 101.756 25.0109 101.16 25.15C100.564 25.309 99.8583 25.3885 99.0434 25.3885Z" fill="#EAEAEA"/><path d="M115.949 12.8967H111.776V25.0904H108.228V12.8967H104.054V10.0943H115.949V12.8967Z" fill="#EAEAEA"/><path d="M123.953 25.0904H118.05V10.0943H124.013C125.642 10.0943 126.875 10.4123 127.709 11.0483C128.564 11.6843 128.991 12.6383 128.991 13.9104C128.991 14.8048 128.753 15.5402 128.276 16.1166C127.799 16.6731 127.163 17.0607 126.368 17.2793C127.362 17.4582 128.137 17.8358 128.693 18.4122C129.27 18.9886 129.558 19.7637 129.558 20.7376C129.558 22.1687 129.061 23.2519 128.067 23.9873C127.073 24.7227 125.702 25.0904 123.953 25.0904ZM123.506 12.7775H121.598V16.1166H123.386C124.062 16.1166 124.579 15.9675 124.937 15.6694C125.314 15.3712 125.503 14.9638 125.503 14.447C125.503 13.8905 125.324 13.4731 124.967 13.1949C124.629 12.9166 124.142 12.7775 123.506 12.7775ZM123.565 18.7103H121.598V22.4072H123.565C124.281 22.4072 124.847 22.2581 125.265 21.96C125.682 21.6618 125.891 21.1749 125.891 20.4991C125.891 19.883 125.692 19.4358 125.295 19.1575C124.897 18.8594 124.321 18.7103 123.565 18.7103Z" fill="#EAEAEA"/><path d="M131.938 10.0943H135.396V19.3662L140.882 10.0943H143.952V25.0904H140.494V15.8184L135.008 25.0904H131.938V10.0943Z" fill="#EAEAEA"/><path d="M145.888 25.0904L149.257 19.4258C148.303 19.1078 147.568 18.5911 147.051 17.8756C146.534 17.1402 146.276 16.206 146.276 15.0731C146.276 13.4632 146.832 12.2309 147.945 11.3763C149.058 10.5216 150.479 10.0943 152.209 10.0943H157.635V25.0904H154.087V20.201H152.387L149.525 25.0904H145.888ZM152.477 12.8967C151.702 12.8967 151.076 13.0756 150.599 13.4334C150.122 13.7911 149.883 14.3775 149.883 15.1924C149.883 16.047 150.102 16.6631 150.539 17.0408C150.976 17.4184 151.592 17.6072 152.387 17.6072H154.087V12.8967H152.477Z" fill="#EAEAEA"/></svg>