<svg width="29" height="30" viewBox="0 0 29 30" fill="none" xmlns="http://www.w3.org/2000/svg"><g clip-path="url(#prefix53d69893clip0_35651_9144)"><path d="M27.9995 15C27.9995 7.26639 21.7304 1 14.0002 1C6.27014 1 0.000244141 7.26989 0.000244141 15C0.000244141 22.7301 6.26663 29 14.0002 29C21.7339 29 28.0002 22.7301 28.0002 15H27.9995Z" fill="#7F5FFF"/><path d="M28.3474 8.34037C26.0593 5.31969 19.9458 1.77184 14.3888 2.94465C12.9054 3.258 13.0807 3.98776 12.6271 4.67896C11.9983 5.63725 10.1287 6.03122 9.99272 6.47286C9.79994 7.10798 10.7211 8.19666 11.2475 8.39294C12.0867 8.70209 12.8192 7.33581 13.8623 7.16757C14.8977 6.99932 18.7491 7.35123 19.3912 8.37191C20.3467 9.43536 20.2374 11.1557 19.6653 11.3947C19.0513 11.6513 17.6331 10.2289 16.6601 10.3383C16.1126 10.4014 15.0449 11.1038 14.4133 11.0302C13.8693 10.9671 13.5146 9.80479 13.0407 9.4648C12.6089 9.15565 10.1659 9.68912 9.53706 9.97374C8.77155 10.3179 7.03443 12.7785 6.98816 13.6632C6.93208 14.6916 9.02742 16.7666 9.87355 16.9313C10.7617 17.1031 12.3341 16.2927 12.8893 16.6748C13.5525 17.1346 14.2794 24.9278 15.7291 24.9383C16.6489 24.9453 19.162 21.5125 19.5553 20.8451C20.1063 19.9043 19.7691 18.4056 19.9626 17.8896C20.2044 17.244 21.7319 16.3943 21.7915 15.7095C21.8476 15.0954 19.7908 13.3295 20.2998 12.9643C20.7036 12.6762 22.8732 13.7158 23.5784 13.2804C24.1806 12.9089 24.203 11.0379 24.9762 9.63444C25.1228 9.36806 25.4025 9.19911 25.7067 9.19911C26.4365 9.19911 27.2419 9.68632 28.1224 13.258C28.3117 13.9709 29.5763 12.3306 29.5763 12.3306L28.3467 8.34177L28.3474 8.34037Z" fill="#FEE14A"/><path d="M21.8971 20.1004C21.4757 19.9917 20.9878 21.0797 20.8476 21.4905C20.7215 21.8697 20.4719 22.9507 20.8476 23.0874C21.304 23.2521 21.9426 22.059 22.08 21.5956C22.1852 21.2339 22.2623 20.195 21.8978 20.1039" fill="#FEE14A"/><path d="M0.0872452 16.5725C0.708346 18.4785 3.13807 17.91 3.55938 19.1845C4.03327 20.6201 2.4041 21.9892 3.41567 24.1659C1.33015 26.2122 -1.00073 20.9707 -1.00073 20.9707L0.0872452 16.5753V16.5718V16.5725Z" fill="#FEE14A"/></g><defs><clipPath id="prefix53d69893clip0_35651_9144"><rect y="1" width="28" height="28" rx="14" fill="white"/></clipPath></defs></svg>