<svg width="85" height="30" viewBox="0 0 85 30" fill="none" xmlns="http://www.w3.org/2000/svg"><path d="M11.1663 25.0904V7.17257H9.55643C8.08564 7.17257 6.96267 7.5204 6.18752 8.21604C5.43225 8.89181 5.05461 9.77627 5.05461 10.8694C5.05461 12.1216 5.32293 13.1154 5.85957 13.8508C6.41609 14.5663 7.24092 15.2917 8.33408 16.0271L10.1527 17.2495L4.90555 25.0904H1L5.71051 18.0843C4.35897 17.1103 3.3155 16.0967 2.58011 15.0433C1.84471 13.9899 1.47701 12.6682 1.47701 11.0781C1.47701 9.09056 2.16272 7.48064 3.53413 6.24836C4.90555 4.9962 6.90304 4.37012 9.52661 4.37012H14.7738V25.0904H11.1663ZM80.7208 25.3885C78.3557 25.3885 76.5867 24.7127 75.4141 23.3612C74.2613 22.0097 73.6849 20.0917 73.6849 17.6072C73.6849 16.4743 73.834 15.4309 74.1321 14.4768C74.4302 13.5029 74.8576 12.6781 75.4141 12.0023C75.9905 11.3067 76.706 10.77 77.5606 10.3924C78.4352 9.9949 79.4389 9.79614 80.5718 9.79614C81.4463 9.79614 82.2016 9.86571 82.8376 10.0048C83.4935 10.144 84.0103 10.3129 84.3879 10.5117V13.5228C84.0301 13.3042 83.5332 13.0955 82.8972 12.8967C82.2811 12.698 81.6351 12.5986 80.9594 12.5986C79.8066 12.5986 78.9122 13.016 78.2761 13.8508C77.66 14.6855 77.3519 15.9079 77.3519 17.5178C77.3519 19.0681 77.6302 20.3004 78.1867 21.2146C78.7631 22.1289 79.6774 22.5861 80.9295 22.5861C81.6649 22.5861 82.3109 22.4966 82.8674 22.3177C83.4438 22.1389 83.9506 21.8904 84.3879 21.5724V24.4643C83.9506 24.7823 83.4339 25.0109 82.8376 25.15C82.2413 25.309 81.5357 25.3885 80.7208 25.3885ZM58.5397 24.0767C58.023 24.4345 57.3472 24.7426 56.5124 25.0009C55.6777 25.2593 54.6938 25.3885 53.5609 25.3885C51.315 25.3885 49.5659 24.7525 48.3138 23.4805C47.0815 22.1886 46.4653 20.2407 46.4653 17.6371C46.4653 16.5041 46.5945 15.4607 46.8529 14.5066C47.1113 13.5327 47.4989 12.7079 48.0156 12.0321C48.5523 11.3365 49.2181 10.7899 50.0131 10.3924C50.828 9.9949 51.7721 9.79614 52.8454 9.79614C54.6143 9.79614 56.0255 10.3427 57.0789 11.4359C58.1522 12.529 58.6888 14.3775 58.6888 16.9812V18.8594H50.1324C50.2119 20.1116 50.5299 21.0457 51.0864 21.6619C51.6429 22.278 52.5671 22.5861 53.859 22.5861C54.7137 22.5861 55.5683 22.4469 56.423 22.1687C57.2776 21.8904 57.9832 21.5625 58.5397 21.1848V24.0767ZM26.0432 10.0943H29.591V25.0904H26.0432V18.8296H21.3029V25.0904H17.7551V10.0943H21.3029V16.0271H26.0432V10.0943ZM45.6007 22.2879V28.5189H42.3213V25.0904H34.3611V28.5189H31.0817V22.2879H32.1847C32.5028 21.6718 32.7512 20.9265 32.9301 20.0519C33.1288 19.1774 33.2779 18.2532 33.3773 17.2793C33.4965 16.3054 33.576 15.3116 33.6158 14.298C33.6555 13.2644 33.6754 12.2905 33.6754 11.3763V10.0943H44.0206V22.2879H45.6007ZM69.8688 25.0904L64.6217 17.7265V25.0904H61.0739V10.0943H64.6217V17.011L69.6303 10.0943H73.2079L68.1992 17.011L73.8936 25.0904H69.8688ZM52.7858 12.5986C51.9311 12.5986 51.2851 12.9067 50.8479 13.5228C50.4106 14.139 50.1721 15.0433 50.1324 16.2358H55.0814V15.9377C55.0814 15.0035 54.9124 14.2185 54.5746 13.5824C54.2565 12.9265 53.6603 12.5986 52.7858 12.5986ZM40.4728 22.2879V12.8967H36.7164V13.3439C36.7164 13.9799 36.6965 14.7054 36.6567 15.5203C36.617 16.3153 36.5474 17.1203 36.448 17.9352C36.3685 18.7501 36.2394 19.5451 36.0605 20.3202C35.9015 21.0755 35.7027 21.7314 35.4642 22.2879H40.4728Z" fill="#EAEAEA"/></svg>